<svg xmlns="http://www.w3.org/2000/svg" width="500" height="500" viewBox="0 0 500 500">
  <g id="Group_3" data-name="Group 3" transform="translate(0 0)">
    <g id="Group_2" data-name="Group 2" transform="translate(0 0)">
      <g id="Group_1" data-name="Group 1">
        <path id="Path_1" data-name="Path 1" d="M426.777,73.224A250,250,0,0,0,73.223,426.776,250,250,0,0,0,426.777,73.224ZM250,470.7A220.2,220.2,0,0,1,85.5,396.962,175.828,175.828,0,0,1,250,283.2a87.891,87.891,0,1,1,87.891-87.891A87.89,87.89,0,0,1,250,283.2,175.828,175.828,0,0,1,414.5,396.962,220.2,220.2,0,0,1,250,470.7Z" transform="translate(0 0)"/>
      </g>
    </g>
  </g>
</svg>
